<?xml version="1.0" encoding="utf-8"?>
<!-- Generator: Adobe Illustrator 27.7.0, SVG Export Plug-In . SVG Version: 6.00 Build 0)  -->
<svg version="1.1" id="レイヤー_1" xmlns="http://www.w3.org/2000/svg" xmlns:xlink="http://www.w3.org/1999/xlink" x="0px"
	 y="0px" viewBox="0 0 358 334" style="enable-background:new 0 0 358 334;" xml:space="preserve">
<style type="text/css">
	.st0{fill:url(#SVGID_1_);}
	.st1{fill:url(#SVGID_00000055690938889632028980000017463502727282989968_);}
	.st2{fill:url(#SVGID_00000175281475728412183090000014992729083562598050_);}
</style>
<g>
	<linearGradient id="SVGID_1_" gradientUnits="userSpaceOnUse" x1="178.4681" y1="1030.1288" x2="178.4681" y2="-175.3122">
		<stop  offset="0" style="stop-color:#FDCF77"/>
		<stop  offset="1" style="stop-color:#FFFFFF"/>
	</linearGradient>
	<path class="st0" d="M305.65,147.8c-1.77-7.12-22.04-4.11-31.91-5.11c-22.06,0.6-58.67,1.76-75.46,1.76c0,0-1.68-17.46,2.34-18.14
		c12.62-2.14,28.45-1.42,42.81-2.56c15.5-0.29,30.97-0.28,46.47,0.17c16.7,3.14,11.38-6.13,6.41-17.27
		c-3.36-7.52-20.97-3.19-31.73-4.4c-15.83-1.78,17.47-21.83,9.75-30.4c-3.45-3.83-13.76-14.77-17.24-10.25
		c-9.73,12.65-12.59,18.16-19.86,27.23c-11.75,14.67-4.17,13.77-53.31,13.77c-4.36,0-10.69-22.72-15.26-32.81
		c-2.68-5.91-12.45-1.1-17.36,0.02c-6.11,5.56,5.36,24.99,6.35,33.38c-8.48,3.46-27.67-5.37-27.76,7.99
		c-0.04,6.13-1.44,16.15,3.67,15.98c13.51-0.46,25.17-0.06,38.21-0.06c0,0,3.53,17.55,0.51,17.55c-9.78,0-19.44,0.98-29.2,0.29
		c-8.78-0.33-18.4-1.82-18.4,5.59c0,5.2-1.27,16.34,4.1,16.42c11.5,0.16,32.19-0.3,44.21,0.07c4.36,0.13,1.93,7.93,2.55,11.44
		c-0.23,16.21,1.41,32.42,0.34,48.6c-0.6,9.05-30.56-1.17-32.7-12.43c-2.84-10.84,7.4-34.7-11.29-31.4c-7-0.96-10.25,2.6-9.06,9.56
		c0.35,10.64-1.18,21.33,2.85,31.58c27.69,51.77,120.2,24.69,131.26-28.41c1.27-6.23,3.17-14.13-6.25-14.08
		c-5.7,0.03-15.82-1.5-16.01,3.6c-0.54,14.63-8.64,27.94-21.23,34.36c-20.69,10.56-15.7-4.96-15.83-17.52
		c-0.16-15.53-2.73-35.75,2.98-35.88c27.14-0.6,42.32-0.92,71-0.19c19.67,0.36,2.76,41.71-2.35,50
		c-23.39,41.7-73.11,62.72-119.07,49.82c-22.73-4.43-42.22-18.81-54.76-38.06c-5.44-8.19,1.92-16.01,5.96-25.63
		c5.16-12.27,19-38.45,13.06-43.77c-5.94-5.32-16.93,2.7-15.98-4.14c2.88-15.81,18.56-42.24,14.74-46.99
		c-2.48-3.08-25.59-1.62-38.16-1.28c-16.77,0.46-14.92,7.53-18.26,17.34c-2.87,8.47,28.82-3.16,30.41,4.71
		c-11.42,29.48-2.03,30.13-34.45,31.1c-6.89,0.21-2.96,13.01-1.53,18.08c1.02,3.62,8.23,1.43,11.92,1.36
		c17.25-0.36,28.81-5.83,17.66,15.96c-3.25,7.35-6.4,14.92-11.28,21.35c-1.43,2.62-5.87,3.89-3.37,8.53
		c28.95,53.71,98.19,82,155.7,59.72C280.08,267.9,318.52,199.55,305.65,147.8z"/>
	
		<linearGradient id="SVGID_00000031194710831847366610000009333129415281927327_" gradientUnits="userSpaceOnUse" x1="103.5321" y1="1030.1288" x2="103.5321" y2="-175.3122">
		<stop  offset="0" style="stop-color:#FDCF77"/>
		<stop  offset="1" style="stop-color:#FFFFFF"/>
	</linearGradient>
	<path style="fill:url(#SVGID_00000031194710831847366610000009333129415281927327_);" d="M79.55,93.44
		c9.28,1.47,14.62,2.85,16.75,0c6.04-8.08,7.45-10.7,20.03-19.31c3.74-3.58,17.82-6.37,16.13-11.67c-2.37-7.43-5.52-15.6-10.94-15.1
		C113.4,46.76,57.61,93.45,79.55,93.44z"/>
	
		<linearGradient id="SVGID_00000008852182340415662130000011838587355701979789_" gradientUnits="userSpaceOnUse" x1="191.9267" y1="1030.1288" x2="191.9267" y2="-175.3122">
		<stop  offset="0" style="stop-color:#FDCF77"/>
		<stop  offset="1" style="stop-color:#FFFFFF"/>
	</linearGradient>
	<path style="fill:url(#SVGID_00000008852182340415662130000011838587355701979789_);" d="M147.25,58.84
		c15.15-5.38,24.52-3.81,30.11-3.81c4.47,0,11.42,23.26,15.29,33.1c1.31,3.33,2.77,8.57,6.88,8.8c4.58-0.16,13.98-3.26,15.07-7.94
		c-5.57-17.25-24.23-42.95,7.89-28.35c4.05,0.52,9.45,6.94,12.83,3.73c8.08-10.7,13.46-15.45-2.15-21.58
		c-14.41-6.34-34.69-11.88-56.19-10.46c-13.11,0-28.24,3.82-33.76,6.04C138.18,40.38,141.25,58.28,147.25,58.84z"/>
</g>
<g>
</g>
<g>
</g>
<g>
</g>
<g>
</g>
<g>
</g>
<g>
</g>
<g>
</g>
<g>
</g>
<g>
</g>
<g>
</g>
<g>
</g>
<g>
</g>
<g>
</g>
<g>
</g>
<g>
</g>
</svg>
